<svg xmlns="http://www.w3.org/2000/svg" width="640" height="420" viewBox="0 0 640 420">
  <defs>
    <linearGradient id="bg" x1="0" y1="0" x2="1" y2="1">
      <stop offset="0%" stop-color="#0a1330"/>
      <stop offset="100%" stop-color="#2b0634"/>
    </linearGradient>
  </defs>
  <rect width="640" height="420" fill="url(#bg)"/>
  <rect x="90" y="32" width="460" height="356" rx="18" fill="#070d1c" stroke="#2effff" stroke-width="4"/>
  <g transform="translate(118 64)">
    <g fill="#121a38" stroke="#263c71" stroke-width="1">
      <rect x="0" y="0" width="40" height="40"/>
      <rect x="44" y="0" width="40" height="40"/>
      <rect x="88" y="0" width="40" height="40"/>
      <rect x="132" y="0" width="40" height="40"/>
      <rect x="176" y="0" width="40" height="40"/>
      <rect x="220" y="0" width="40" height="40"/>
      <rect x="264" y="0" width="40" height="40"/>
      <rect x="308" y="0" width="40" height="40"/>
      <rect x="352" y="0" width="40" height="40"/>
      <rect x="396" y="0" width="40" height="40"/>
      <rect x="0" y="44" width="40" height="40"/>
      <rect x="44" y="44" width="40" height="40"/>
      <rect x="88" y="44" width="40" height="40"/>
      <rect x="132" y="44" width="40" height="40"/>
      <rect x="176" y="44" width="40" height="40"/>
      <rect x="220" y="44" width="40" height="40"/>
      <rect x="264" y="44" width="40" height="40"/>
      <rect x="308" y="44" width="40" height="40"/>
      <rect x="352" y="44" width="40" height="40"/>
      <rect x="396" y="44" width="40" height="40"/>
    </g>
    <g fill="#1f2b53">
      <rect x="88" y="88" width="40" height="40"/>
      <rect x="132" y="88" width="40" height="40"/>
      <rect x="176" y="88" width="40" height="40"/>
      <rect x="220" y="88" width="40" height="40"/>
    </g>
    <g font-family="monospace" font-size="24" font-weight="700">
      <text x="100" y="115" fill="#6eff5f">1</text>
      <text x="146" y="115" fill="#fff033">2</text>
      <text x="188" y="115" fill="#ff3dbf">3</text>
      <text x="235" y="115" fill="#52f6ff">1</text>
      <text x="54" y="160" fill="#ff3dbf">F</text>
      <text x="362" y="160" fill="#fff033">F</text>
      <text x="318" y="204" fill="#ff6b6b">*</text>
    </g>
  </g>
</svg>
