<svg xmlns="http://www.w3.org/2000/svg" width="640" height="420" viewBox="0 0 640 420">
  <defs>
    <linearGradient id="bg" x1="0" y1="0" x2="1" y2="1">
      <stop offset="0%" stop-color="#0a1231"/>
      <stop offset="100%" stop-color="#2b0430"/>
    </linearGradient>
  </defs>
  <rect width="640" height="420" fill="url(#bg)"/>
  <rect x="190" y="20" width="260" height="380" rx="16" fill="#070c19" stroke="#2effff" stroke-width="4"/>
  <g transform="translate(210,40)">
    <rect x="0" y="0" width="220" height="340" fill="none" stroke="#223357"/>
    <g fill="#2effff">
      <rect x="22" y="280" width="20" height="20"/>
      <rect x="42" y="280" width="20" height="20"/>
      <rect x="62" y="280" width="20" height="20"/>
      <rect x="82" y="280" width="20" height="20"/>
    </g>
    <g fill="#ff3dbf">
      <rect x="102" y="260" width="20" height="20"/>
      <rect x="122" y="260" width="20" height="20"/>
      <rect x="122" y="280" width="20" height="20"/>
      <rect x="142" y="280" width="20" height="20"/>
    </g>
    <g fill="#fff033">
      <rect x="42" y="240" width="20" height="20"/>
      <rect x="62" y="240" width="20" height="20"/>
      <rect x="82" y="240" width="20" height="20"/>
      <rect x="62" y="220" width="20" height="20"/>
    </g>
    <g fill="#6eff5f">
      <rect x="142" y="200" width="20" height="20"/>
      <rect x="162" y="200" width="20" height="20"/>
      <rect x="182" y="200" width="20" height="20"/>
      <rect x="182" y="220" width="20" height="20"/>
    </g>
  </g>
  <text x="320" y="386" fill="#fff033" font-family="monospace" font-size="24" text-anchor="middle">LEVEL 3</text>
</svg>
